<svg viewBox="-10 -10 120 120" xmlns="http://www.w3.org/2000/svg">
    <circle cx="50" cy="55" r="38" stroke="#3b82f6" stroke-opacity="0.1" stroke-width="1" fill="none" />
    <circle cx="50" cy="55" r="32" stroke="#3b82f6" stroke-opacity="0.2" stroke-width="1.5" fill="none" />
    <path d="M30 45C30 35 40 30 50 30" stroke="#60a5fa" stroke-width="1" stroke-dasharray="2 2" fill="none" />
    <path d="M70 45C70 35 60 30 50 30" stroke="#60a5fa" stroke-width="1" stroke-dasharray="2 2" fill="none" />
    <path d="M25 65L15 75" stroke="#3b82f6" stroke-width="1.5" stroke-linecap="round" fill="none" />
    <circle cx="15" cy="75" r="2" fill="#3b82f6" />
    <path d="M75 65L85 75" stroke="#2563eb" stroke-width="1.5" stroke-linecap="round" fill="none" />
    <circle cx="85" cy="75" r="2" fill="#2563eb" />
    <path d="M50 90V30M50 30L35 45M50 30L65 45" stroke="url(#logo-gradient)" stroke-width="10" stroke-linecap="round" stroke-linejoin="round" fill="none" />
    <rect x="46" y="18" width="8" height="8" fill="#60a5fa" rx="1" />
    <rect x="56" y="12" width="6" height="6" fill="#3b82f6" rx="1" />
    <rect x="38" y="12" width="6" height="6" fill="#93c5fd" rx="1" />
    <rect x="50" y="4" width="5" height="5" fill="#2563eb" rx="1" />
    <rect x="42" y="6" width="4" height="4" fill="#60a5fa" rx="1" />
    <defs>
        <linearGradient id="logo-gradient" x1="50" y1="90" x2="50" y2="30" gradientUnits="userSpaceOnUse">
            <stop offset="0" stop-color="#1e3a8a" />
            <stop offset="0.5" stop-color="#2563eb" />
            <stop offset="1" stop-color="#3b82f6" />
        </linearGradient>
    </defs>
</svg>
